M48
; DRILL file {KiCad 5.1.6} date Mon Nov 23 13:40:34 2020
; FORMAT={-:-/ absolute / inch / decimal}
; #@! TF.CreationDate,2020-11-23T13:40:34+00:00
; #@! TF.GenerationSoftware,Kicad,Pcbnew,5.1.6
; #@! TF.FileFunction,Plated,1,2,PTH
FMAT,2
INCH
T1C0.0295
T2C0.0315
T3C0.0433
T4C0.0520
%
G90
G05
T1
X6.7Y-4.15
X6.75Y-4.15
X6.8Y-4.15
X7.0Y-4.15
X7.05Y-4.15
X7.1Y-4.15
X6.4Y-4.15
X6.45Y-4.15
X6.5Y-4.15
T2
X5.4Y-4.3
X6.0Y-4.3
X5.4Y-4.1
X6.0Y-4.1
T3
X5.2Y-4.0
X5.2Y-4.1
X5.2Y-4.2
T4
X5.2Y-3.0
X5.3969Y-3.0
X5.5937Y-3.0
X5.7906Y-3.0
T0
M30
