M48
INCH,TZ
T1C0.0157
T2C0.0394
T3C0.0433
T4C0.0610
%
G90
G05
T1
X54000Y-18500
X55740Y-25760
X56000Y-18250
X56200Y-20600
X57744Y-27000
X57800Y-21600
X59800Y-21200
X60000Y-23200
X60200Y-21600
X60200Y-22600
X61000Y-25000
X62500Y-18000
X62500Y-19000
T2
X55500Y-40500
X56500Y-40500
X57500Y-40500
X58500Y-40500
X59500Y-40500
X60500Y-40500
T3
X57000Y-33600
X58000Y-33600
X59000Y-33600
X57000Y-30800
X58000Y-30800
X59000Y-30800
X57000Y-36400
X58000Y-36400
X59000Y-36400
T4
X52500Y-35244
X52500Y-38000
X63000Y-29732
X63000Y-32488
X63000Y-35244
X63000Y-38000
T0
M30
