%TF.GenerationSoftware,KiCad,Pcbnew,5.1.6*%
%TF.CreationDate,2020-11-23T13:40:36+00:00*%
%TF.ProjectId,LEDs,4c454473-2e6b-4696-9361-645f70636258,rev?*%
%TF.SameCoordinates,Original*%
%TF.FileFunction,Soldermask,Top*%
%TF.FilePolarity,Negative*%
%FSLAX46Y46*%
G04 Gerber Fmt 4.6, Leading zero omitted, Abs format (unit mm)*
G04 Created by KiCad (PCBNEW 5.1.6) date 2020-11-23 13:40:36*
%MOMM*%
%LPD*%
G01*
G04 APERTURE LIST*
%ADD10R,2.600000X1.100000*%
%ADD11R,1.100000X1.900000*%
%ADD12O,2.100000X2.005000*%
%ADD13R,2.100000X2.005000*%
%ADD14O,1.700000X1.700000*%
%ADD15C,1.700000*%
%ADD16R,1.150000X1.600000*%
%ADD17O,1.150000X1.600000*%
%ADD18O,2.080000X4.060000*%
%ADD19R,2.080000X4.060000*%
G04 APERTURE END LIST*
D10*
%TO.C,U2*%
X168890000Y-79050000D03*
X168890000Y-81050000D03*
X168890000Y-83050000D03*
X168890000Y-85050000D03*
X168890000Y-87050000D03*
X168890000Y-89050000D03*
X168890000Y-91050000D03*
X168890000Y-93050000D03*
D11*
X166290000Y-94550000D03*
X164290000Y-94550000D03*
X162290000Y-94550000D03*
X160290000Y-94550000D03*
X158290000Y-94550000D03*
X156290000Y-94550000D03*
D10*
X153690000Y-93050000D03*
X153690000Y-91050000D03*
X153690000Y-89050000D03*
X153690000Y-87050000D03*
X153690000Y-85050000D03*
X153690000Y-83050000D03*
X153690000Y-81050000D03*
X153690000Y-79050000D03*
%TD*%
D12*
%TO.C,U1*%
X132080000Y-106680000D03*
X132080000Y-104140000D03*
D13*
X132080000Y-101600000D03*
%TD*%
D14*
%TO.C,R2*%
X152400000Y-109220000D03*
D15*
X137160000Y-109220000D03*
%TD*%
D14*
%TO.C,R1*%
X152400000Y-104140000D03*
D15*
X137160000Y-104140000D03*
%TD*%
D16*
%TO.C,Q3*%
X162560000Y-105410000D03*
D17*
X165100000Y-105410000D03*
X163830000Y-105410000D03*
%TD*%
D16*
%TO.C,Q2*%
X170180000Y-105410000D03*
D17*
X172720000Y-105410000D03*
X171450000Y-105410000D03*
%TD*%
D16*
%TO.C,Q1*%
X177800000Y-105410000D03*
D17*
X180340000Y-105410000D03*
X179070000Y-105410000D03*
%TD*%
D18*
%TO.C,J1*%
X142080000Y-76200000D03*
X147080000Y-76200000D03*
X137080000Y-76200000D03*
D19*
X132080000Y-76200000D03*
%TD*%
M02*
