%TF.GenerationSoftware,KiCad,Pcbnew,5.1.6*%
%TF.CreationDate,2020-11-23T13:40:36+00:00*%
%TF.ProjectId,LEDs,4c454473-2e6b-4696-9361-645f70636258,rev?*%
%TF.SameCoordinates,Original*%
%TF.FileFunction,Legend,Top*%
%TF.FilePolarity,Positive*%
%FSLAX46Y46*%
G04 Gerber Fmt 4.6, Leading zero omitted, Abs format (unit mm)*
G04 Created by KiCad (PCBNEW 5.1.6) date 2020-11-23 13:40:36*
%MOMM*%
%LPD*%
G01*
G04 APERTURE LIST*
%ADD10C,0.120000*%
%ADD11C,0.150000*%
G04 APERTURE END LIST*
D10*
%TO.C,U2*%
X153170000Y-70430000D02*
X169410000Y-70430000D01*
X169410000Y-70430000D02*
X169410000Y-78050000D01*
X169410000Y-94050000D02*
X169410000Y-94670000D01*
X169410000Y-94670000D02*
X167290000Y-94670000D01*
X155290000Y-94670000D02*
X153170000Y-94670000D01*
X153170000Y-94670000D02*
X153170000Y-94050000D01*
X153170000Y-78050000D02*
X153170000Y-70430000D01*
X153170000Y-78050000D02*
X152560000Y-78050000D01*
%TO.C,U1*%
X135350000Y-99020000D02*
X135350000Y-109260000D01*
X130709000Y-99020000D02*
X130709000Y-109260000D01*
X135350000Y-99020000D02*
X130709000Y-99020000D01*
X135350000Y-109260000D02*
X130709000Y-109260000D01*
X133840000Y-99020000D02*
X133840000Y-109260000D01*
X135350000Y-102290000D02*
X133840000Y-102290000D01*
X135350000Y-105991000D02*
X133840000Y-105991000D01*
%TO.C,R2*%
X140160000Y-107500000D02*
X140160000Y-110940000D01*
X140160000Y-110940000D02*
X149400000Y-110940000D01*
X149400000Y-110940000D02*
X149400000Y-107500000D01*
X149400000Y-107500000D02*
X140160000Y-107500000D01*
X138200000Y-109220000D02*
X140160000Y-109220000D01*
X151360000Y-109220000D02*
X149400000Y-109220000D01*
%TO.C,R1*%
X140160000Y-102420000D02*
X140160000Y-105860000D01*
X140160000Y-105860000D02*
X149400000Y-105860000D01*
X149400000Y-105860000D02*
X149400000Y-102420000D01*
X149400000Y-102420000D02*
X140160000Y-102420000D01*
X138200000Y-104140000D02*
X140160000Y-104140000D01*
X151360000Y-104140000D02*
X149400000Y-104140000D01*
%TO.C,Q3*%
X165668478Y-107248478D02*
G75*
G03*
X163830000Y-102810000I-1838478J1838478D01*
G01*
X161991522Y-107248478D02*
G75*
G02*
X163830000Y-102810000I1838478J1838478D01*
G01*
X162030000Y-107260000D02*
X165630000Y-107260000D01*
%TO.C,Q2*%
X173288478Y-107248478D02*
G75*
G03*
X171450000Y-102810000I-1838478J1838478D01*
G01*
X169611522Y-107248478D02*
G75*
G02*
X171450000Y-102810000I1838478J1838478D01*
G01*
X169650000Y-107260000D02*
X173250000Y-107260000D01*
%TO.C,Q1*%
X180908478Y-107248478D02*
G75*
G03*
X179070000Y-102810000I-1838478J1838478D01*
G01*
X177231522Y-107248478D02*
G75*
G02*
X179070000Y-102810000I1838478J1838478D01*
G01*
X177270000Y-107260000D02*
X180870000Y-107260000D01*
%TO.C,J1*%
X129430000Y-69900000D02*
X150230000Y-69900000D01*
X150230000Y-69900000D02*
X150230000Y-74950000D01*
X150230000Y-74950000D02*
X149730000Y-74700000D01*
X149730000Y-74700000D02*
X149730000Y-80100000D01*
X149730000Y-80100000D02*
X150280000Y-79800000D01*
X150280000Y-79800000D02*
X150280000Y-81850000D01*
X150280000Y-81850000D02*
X149730000Y-81550000D01*
X149730000Y-81550000D02*
X149730000Y-82500000D01*
X149730000Y-82500000D02*
X129430000Y-82500000D01*
X129430000Y-82500000D02*
X129430000Y-69900000D01*
%TO.C,U2*%
D11*
X149968095Y-76742380D02*
X149968095Y-77551904D01*
X150015714Y-77647142D01*
X150063333Y-77694761D01*
X150158571Y-77742380D01*
X150349047Y-77742380D01*
X150444285Y-77694761D01*
X150491904Y-77647142D01*
X150539523Y-77551904D01*
X150539523Y-76742380D01*
X150968095Y-76837619D02*
X151015714Y-76790000D01*
X151110952Y-76742380D01*
X151349047Y-76742380D01*
X151444285Y-76790000D01*
X151491904Y-76837619D01*
X151539523Y-76932857D01*
X151539523Y-77028095D01*
X151491904Y-77170952D01*
X150920476Y-77742380D01*
X151539523Y-77742380D01*
%TO.C,U1*%
X135802380Y-104901904D02*
X136611904Y-104901904D01*
X136707142Y-104854285D01*
X136754761Y-104806666D01*
X136802380Y-104711428D01*
X136802380Y-104520952D01*
X136754761Y-104425714D01*
X136707142Y-104378095D01*
X136611904Y-104330476D01*
X135802380Y-104330476D01*
X136802380Y-103330476D02*
X136802380Y-103901904D01*
X136802380Y-103616190D02*
X135802380Y-103616190D01*
X135945238Y-103711428D01*
X136040476Y-103806666D01*
X136088095Y-103901904D01*
%TO.C,R2*%
X144613333Y-106952380D02*
X144280000Y-106476190D01*
X144041904Y-106952380D02*
X144041904Y-105952380D01*
X144422857Y-105952380D01*
X144518095Y-106000000D01*
X144565714Y-106047619D01*
X144613333Y-106142857D01*
X144613333Y-106285714D01*
X144565714Y-106380952D01*
X144518095Y-106428571D01*
X144422857Y-106476190D01*
X144041904Y-106476190D01*
X144994285Y-106047619D02*
X145041904Y-106000000D01*
X145137142Y-105952380D01*
X145375238Y-105952380D01*
X145470476Y-106000000D01*
X145518095Y-106047619D01*
X145565714Y-106142857D01*
X145565714Y-106238095D01*
X145518095Y-106380952D01*
X144946666Y-106952380D01*
X145565714Y-106952380D01*
%TO.C,R1*%
X144613333Y-101872380D02*
X144280000Y-101396190D01*
X144041904Y-101872380D02*
X144041904Y-100872380D01*
X144422857Y-100872380D01*
X144518095Y-100920000D01*
X144565714Y-100967619D01*
X144613333Y-101062857D01*
X144613333Y-101205714D01*
X144565714Y-101300952D01*
X144518095Y-101348571D01*
X144422857Y-101396190D01*
X144041904Y-101396190D01*
X145565714Y-101872380D02*
X144994285Y-101872380D01*
X145280000Y-101872380D02*
X145280000Y-100872380D01*
X145184761Y-101015238D01*
X145089523Y-101110476D01*
X144994285Y-101158095D01*
%TO.C,Q3*%
X163734761Y-102397619D02*
X163639523Y-102350000D01*
X163544285Y-102254761D01*
X163401428Y-102111904D01*
X163306190Y-102064285D01*
X163210952Y-102064285D01*
X163258571Y-102302380D02*
X163163333Y-102254761D01*
X163068095Y-102159523D01*
X163020476Y-101969047D01*
X163020476Y-101635714D01*
X163068095Y-101445238D01*
X163163333Y-101350000D01*
X163258571Y-101302380D01*
X163449047Y-101302380D01*
X163544285Y-101350000D01*
X163639523Y-101445238D01*
X163687142Y-101635714D01*
X163687142Y-101969047D01*
X163639523Y-102159523D01*
X163544285Y-102254761D01*
X163449047Y-102302380D01*
X163258571Y-102302380D01*
X164020476Y-101302380D02*
X164639523Y-101302380D01*
X164306190Y-101683333D01*
X164449047Y-101683333D01*
X164544285Y-101730952D01*
X164591904Y-101778571D01*
X164639523Y-101873809D01*
X164639523Y-102111904D01*
X164591904Y-102207142D01*
X164544285Y-102254761D01*
X164449047Y-102302380D01*
X164163333Y-102302380D01*
X164068095Y-102254761D01*
X164020476Y-102207142D01*
%TO.C,Q2*%
X171354761Y-102397619D02*
X171259523Y-102350000D01*
X171164285Y-102254761D01*
X171021428Y-102111904D01*
X170926190Y-102064285D01*
X170830952Y-102064285D01*
X170878571Y-102302380D02*
X170783333Y-102254761D01*
X170688095Y-102159523D01*
X170640476Y-101969047D01*
X170640476Y-101635714D01*
X170688095Y-101445238D01*
X170783333Y-101350000D01*
X170878571Y-101302380D01*
X171069047Y-101302380D01*
X171164285Y-101350000D01*
X171259523Y-101445238D01*
X171307142Y-101635714D01*
X171307142Y-101969047D01*
X171259523Y-102159523D01*
X171164285Y-102254761D01*
X171069047Y-102302380D01*
X170878571Y-102302380D01*
X171688095Y-101397619D02*
X171735714Y-101350000D01*
X171830952Y-101302380D01*
X172069047Y-101302380D01*
X172164285Y-101350000D01*
X172211904Y-101397619D01*
X172259523Y-101492857D01*
X172259523Y-101588095D01*
X172211904Y-101730952D01*
X171640476Y-102302380D01*
X172259523Y-102302380D01*
%TO.C,Q1*%
X178974761Y-102397619D02*
X178879523Y-102350000D01*
X178784285Y-102254761D01*
X178641428Y-102111904D01*
X178546190Y-102064285D01*
X178450952Y-102064285D01*
X178498571Y-102302380D02*
X178403333Y-102254761D01*
X178308095Y-102159523D01*
X178260476Y-101969047D01*
X178260476Y-101635714D01*
X178308095Y-101445238D01*
X178403333Y-101350000D01*
X178498571Y-101302380D01*
X178689047Y-101302380D01*
X178784285Y-101350000D01*
X178879523Y-101445238D01*
X178927142Y-101635714D01*
X178927142Y-101969047D01*
X178879523Y-102159523D01*
X178784285Y-102254761D01*
X178689047Y-102302380D01*
X178498571Y-102302380D01*
X179879523Y-102302380D02*
X179308095Y-102302380D01*
X179593809Y-102302380D02*
X179593809Y-101302380D01*
X179498571Y-101445238D01*
X179403333Y-101540476D01*
X179308095Y-101588095D01*
%TO.C,J1*%
X139246666Y-68502380D02*
X139246666Y-69216666D01*
X139199047Y-69359523D01*
X139103809Y-69454761D01*
X138960952Y-69502380D01*
X138865714Y-69502380D01*
X140246666Y-69502380D02*
X139675238Y-69502380D01*
X139960952Y-69502380D02*
X139960952Y-68502380D01*
X139865714Y-68645238D01*
X139770476Y-68740476D01*
X139675238Y-68788095D01*
%TD*%
M02*
